<?xml version="1.0" encoding="UTF-8" standalone="no"?>
<!-- Created with Inkscape (http://www.inkscape.org/) -->

<svg
   width="210mm"
   height="297mm"
   viewBox="0 0 210 297"
   version="1.1"
   id="svg1"
   inkscape:version="1.4 (86a8ad7, 2024-10-11)"
   sodipodi:docname="Legacy stl Logo.svg"
   xml:space="preserve"
   xmlns:inkscape="http://www.inkscape.org/namespaces/inkscape"
   xmlns:sodipodi="http://sodipodi.sourceforge.net/DTD/sodipodi-0.dtd"
   xmlns:xlink="http://www.w3.org/1999/xlink"
   xmlns="http://www.w3.org/2000/svg"
   xmlns:svg="http://www.w3.org/2000/svg"><sodipodi:namedview
     id="namedview1"
     pagecolor="#505050"
     bordercolor="#eeeeee"
     borderopacity="1"
     inkscape:showpageshadow="0"
     inkscape:pageopacity="0"
     inkscape:pagecheckerboard="0"
     inkscape:deskcolor="#505050"
     inkscape:document-units="mm"
     inkscape:zoom="0.68862935"
     inkscape:cx="397.16576"
     inkscape:cy="561.25984"
     inkscape:window-width="1920"
     inkscape:window-height="991"
     inkscape:window-x="-9"
     inkscape:window-y="-9"
     inkscape:window-maximized="1"
     inkscape:current-layer="layer1" /><defs
     id="defs1"><linearGradient
       id="linearGradient85"
       inkscape:collect="always"><stop
         style="stop-color:#ffcc00;stop-opacity:1;"
         offset="0.52439022"
         id="stop85" /><stop
         style="stop-color:#ff9000;stop-opacity:0;"
         offset="1"
         id="stop86" /></linearGradient><linearGradient
       id="linearGradient47"
       inkscape:collect="always"><stop
         style="stop-color:#ff00a6;stop-opacity:1;"
         offset="0"
         id="stop47" /><stop
         style="stop-color:#efff00;stop-opacity:0;"
         offset="1"
         id="stop48" /></linearGradient><inkscape:perspective
       sodipodi:type="inkscape:persp3d"
       inkscape:vp_x="0 : 148.5 : 1"
       inkscape:vp_y="0 : 1000 : 0"
       inkscape:vp_z="210 : 148.5 : 1"
       inkscape:persp3d-origin="105 : 99 : 1"
       id="perspective1" /><meshgradient
       inkscape:collect="always"
       id="meshgradient30"
       gradientUnits="userSpaceOnUse"
       x="79.195656"
       y="60.3031"
       gradientTransform="matrix(2.0226381,0,0,2.0812208,-122.38513,-54.062693)"><meshrow
         id="meshrow30"><meshpatch
           id="meshpatch30"><stop
             path="c 17.4804,-16.8802  45.8217,-16.8802  63.3021,0"
             style="stop-color:#ffffff;stop-opacity:1"
             id="stop31" /><stop
             path="c 17.4804,16.8802  17.4804,44.2484  0,61.1286"
             style="stop-color:#0000ff;stop-opacity:1"
             id="stop32" /><stop
             path="c -17.4804,16.8802  -45.8217,16.8802  -63.3021,0"
             style="stop-color:#ffffff;stop-opacity:1"
             id="stop33" /><stop
             path="c -17.4804,-16.8802  -17.4804,-44.2484  -1.42109e-14,-61.1286"
             style="stop-color:#0000ff;stop-opacity:1"
             id="stop34" /></meshpatch></meshrow></meshgradient><radialGradient
       inkscape:collect="always"
       xlink:href="#linearGradient47"
       id="radialGradient48"
       cx="102.20179"
       cy="134.47606"
       fx="102.20179"
       fy="134.47606"
       r="91.192012"
       gradientTransform="matrix(0.99578993,0,0,0.98946355,0.04605938,1.9932295)"
       gradientUnits="userSpaceOnUse" /><symbol
       id="sjjb-shopping.svg:symbol138"
       viewBox="0 0 576.44501 577.45154"><title
         id="title135">Jewelry 2</title><path
         d="M 64.571,0.06355556 C 23.236,0.06355556 0,21.434556 0,65.099556 V 515.22256 c 0,40.844 20.895,62.229 62.192,62.229 h 452.024 c 41.307,0 62.229,-20.315 62.229,-62.229 V 65.099556 c 0,-42.601 -20.922,-65.03600044 -63.521,-65.03600044 -0.004,0 -448.495,-0.143 -448.353,0 z"
         id="path136" /><path
         opacity="0.1"
         d="M 129.46006,109.0104 49.655375,204.77603 289.06943,492.0729 528.48545,204.77603 448.6788,109.0104 H 129.46005 Z"
         fill="#ffffff"
         id="path137" /><path
         d="m 129.46006,93.049462 a 15.962595,15.962595 0 0 0 -12.28125,5.734374 L 37.374125,194.54947 a 15.962595,15.962595 0 0 0 -0.130859,0.17382 15.962595,15.962595 0 0 0 -0.398438,0.5293 15.962595,15.962595 0 0 0 -0.539062,0.75391 15.962595,15.962595 0 0 0 -0.357422,0.58789 15.962595,15.962595 0 0 0 -0.449219,0.77929 15.962595,15.962595 0 0 0 -0.308594,0.64844 15.962595,15.962595 0 0 0 -0.357422,0.79492 15.962595,15.962595 0 0 0 -0.25,0.69532 15.962595,15.962595 0 0 0 -0.271484,0.81445 15.962595,15.962595 0 0 0 -0.175781,0.70313 15.962595,15.962595 0 0 0 -0.191406,0.84374 15.962595,15.962595 0 0 0 -0.111329,0.76758 15.962595,15.962595 0 0 0 -0.09766,0.79492 15.962595,15.962595 0 0 0 -0.03711,0.81836 15.962595,15.962595 0 0 0 -0.01758,0.7793 15.962595,15.962595 0 0 0 0.04687,0.83594 15.962595,15.962595 0 0 0 0.05664,0.73828 15.962595,15.962595 0 0 0 0.134766,0.86523 15.962595,15.962595 0 0 0 0.128906,0.71485 15.962595,15.962595 0 0 0 0.216797,0.82812 15.962595,15.962595 0 0 0 0.201172,0.70899 15.962595,15.962595 0 0 0 0.291016,0.78711 15.962595,15.962595 0 0 0 0.279296,0.70508 15.962595,15.962595 0 0 0 0.367188,0.75195 15.962595,15.962595 0 0 0 0.353516,0.67773 15.962595,15.962595 0 0 0 0.443359,0.7168 15.962595,15.962595 0 0 0 0.402344,0.61914 15.962595,15.962595 0 0 0 0.771484,1.01758 L 276.46397,501.90689 a 15.962595,15.962595 0 0 0 25.30078,-0.10352 L 540.7667,215.00064 a 15.962595,15.962595 0 0 0 0.13086,-0.17383 15.962595,15.962595 0 0 0 0.40821,-0.54297 15.962595,15.962595 0 0 0 0.52343,-0.73047 15.962595,15.962595 0 0 0 0.37305,-0.61328 15.962595,15.962595 0 0 0 0.4375,-0.75976 15.962595,15.962595 0 0 0 0.31445,-0.65821 15.962595,15.962595 0 0 0 0.35352,-0.78711 15.962595,15.962595 0 0 0 0.2539,-0.70507 15.962595,15.962595 0 0 0 0.26563,-0.79883 15.962595,15.962595 0 0 0 0.18164,-0.73047 15.962595,15.962595 0 0 0 0.18555,-0.81836 15.962595,15.962595 0 0 0 0.11328,-0.7793 15.962595,15.962595 0 0 0 0.0977,-0.78906 15.962595,15.962595 0 0 0 0.0371,-0.81836 15.962595,15.962595 0 0 0 0.0176,-0.77734 15.962595,15.962595 0 0 0 -0.0469,-0.83789 15.962595,15.962595 0 0 0 -0.0566,-0.73633 15.962595,15.962595 0 0 0 -0.13477,-0.86524 15.962595,15.962595 0 0 0 -0.1289,-0.71484 15.962595,15.962595 0 0 0 -0.21485,-0.82227 15.962595,15.962595 0 0 0 -0.20312,-0.71484 15.962595,15.962595 0 0 0 -0.30664,-0.82422 15.962595,15.962595 0 0 0 -0.25977,-0.65625 15.962595,15.962595 0 0 0 -0.39648,-0.8125 15.962595,15.962595 0 0 0 -0.31836,-0.61328 15.962595,15.962595 0 0 0 -0.47266,-0.76367 15.962595,15.962595 0 0 0 -0.38086,-0.58399 15.962595,15.962595 0 0 0 -0.77344,-1.02343 L 460.96209,98.783836 A 15.962595,15.962595 0 0 0 448.67888,93.049462 H 129.46013 Z m 7.48242,31.921878 h 28.41016 l 18.62109,63.84375 H 83.76084 l 53.18164,-63.84375 z m 61.70313,0 h 180.84961 l -18.61914,63.84375 H 217.26475 Z m 214.14258,0 h 28.41015 l 53.18164,63.84375 H 394.16709 Z M 83.76084,220.73697 h 109.52344 l 58.98438,202.23047 z m 142.81446,0 h 124.99023 l -62.49609,214.28711 z m 158.28125,0 H 494.37998 L 325.87217,422.96548 Z"
         fill="#ffffff"
         id="path138" /></symbol><meshgradient
       inkscape:collect="always"
       id="meshgradient78"
       gradientUnits="userSpaceOnUse"
       x="-0.5"
       y="-0.5"><meshrow
         id="meshrow78"><meshpatch
           id="meshpatch78"><stop
             path="c 192.482,0  384.963,0  577.445,0"
             style="stop-color:#ffffff;stop-opacity:1"
             id="stop78" /><stop
             path="c 0,192.817  0,385.634  0,578.452"
             style="stop-color:#ffaaaa;stop-opacity:1"
             id="stop79" /><stop
             path="c -192.482,0  -384.963,0  -577.445,0"
             style="stop-color:#ffffff;stop-opacity:1"
             id="stop80" /><stop
             path="c 0,-192.817  0,-385.634  0,-578.452"
             style="stop-color:#ffaaaa;stop-opacity:1"
             id="stop81" /></meshpatch></meshrow></meshgradient><radialGradient
       inkscape:collect="always"
       xlink:href="#linearGradient85"
       id="radialGradient86"
       cx="288.2225"
       cy="288.72578"
       fx="288.2225"
       fy="288.72578"
       r="288.7225"
       gradientTransform="matrix(1,0,0,1.0017431,0,-0.50328572)"
       gradientUnits="userSpaceOnUse" /></defs><g
     inkscape:label="Layer 1"
     inkscape:groupmode="layer"
     id="layer1"><path
       sodipodi:type="star"
       style="fill:#bfa9bb;fill-opacity:1;stroke-width:0.264583"
       id="path16"
       inkscape:flatsided="false"
       sodipodi:sides="200"
       sodipodi:cx="21.516171"
       sodipodi:cy="34.195343"
       sodipodi:r1="98.651123"
       sodipodi:r2="95.592934"
       sodipodi:arg1="0.81018647"
       sodipodi:arg2="0.82589444"
       inkscape:rounded="0"
       inkscape:randomized="0"
       d="m 89.52264,105.65977 -3.20405,-1.18886 0.925742,3.28973 -3.165127,-1.28891 0.821952,3.31718 -3.123079,-1.38769 0.717351,3.34136 -3.077949,-1.48511 0.612042,3.36225 -3.029782,-1.58106 0.506129,3.37982 -2.978625,-1.67545 0.399717,3.39405 -2.924528,-1.76818 0.29291,3.40493 -2.867545,-1.85917 0.185814,3.41244 -2.807732,-1.94832 0.07854,3.4166 -2.745148,-2.03555 -0.02882,3.41738 -2.679856,-2.12078 -0.13615,3.41479 -2.611918,-2.20391 -0.243344,3.40883 -2.541402,-2.28487 -0.350298,3.39951 -2.468379,-2.36357 -0.456906,3.38683 -2.39292,-2.43993 -0.563063,3.37079 -2.3151,-2.51389 -0.668664,3.35145 -2.234994,-2.58536 -0.773606,3.32879 -2.152683,-2.6543 -0.877784,3.30285 -2.068247,-2.7206 -0.981096,3.27365 -1.98177,-2.78423 -1.08344,3.24122 -1.893338,-2.8451 -1.184714,3.20558 -1.803037,-2.90317 -1.284819,3.16679 -1.710957,-2.95836 -1.383656,3.12487 -1.617188,-3.01066 -1.481128,3.07987 -1.521823,-3.05996 -1.577138,3.03182 -1.424956,-3.10626 -1.671593,2.98079 -1.326683,-3.14948 -1.764396,2.92681 -1.227101,-3.1896 -1.8554584,2.86995 -1.1263075,-3.22657 -1.9446905,2.81025 -1.0244028,-3.26036 -2.032003,2.74778 -0.921487,-3.29093 -2.11731009,2.6826 -0.81766192,-3.31825 -2.20052759,2.61477 -0.7130299,-3.34229 -2.2815736,2.54435 -0.6076941,-3.36304 -2.3603678,2.47144 -0.5017587,-3.38047 -2.4368331,2.39607 -0.395328,-3.39456 -2.510892,2.31835 -0.288508,-3.4053 -2.582475,2.23833 -0.181401,-3.41268 -2.651509,2.15611 -0.07412,-3.4167 -2.717925,2.07176 0.03324,-3.41734 -2.781659,1.98537 0.140565,-3.41461 -2.842649,1.89702 0.247752,-3.40851 -2.900833,1.80678 0.354693,-3.39904 -2.956155,1.71478 0.461285,-3.38623 -3.008558,1.62108 0.567421,-3.37007 -3.057993,1.52578 0.672998,-3.35058 -3.10441,1.42897 0.77791,-3.32779 -3.147763,1.33075 0.882054,-3.30171 -3.18801,1.23123 0.985328,-3.27238 -3.22511,1.13048 1.08763,-3.23981 -3.259028,1.02861 1.188858,-3.204047 -3.28973,0.925741 1.288914,-3.165126 -3.317185,0.821951 1.387696,-3.123078 -3.341366,0.71735 1.48511,-3.077949 -3.36225,0.612042 1.581058,-3.029782 -3.379815,0.506129 1.675445,-2.978624 -3.394045,0.399716 1.768179,-2.924528 -3.404926,0.292911 1.859168,-2.867545 -3.412446,0.185814 1.948323,-2.807732 -3.416599,0.07854 2.035554,-2.745149 -3.41738,-0.02882 2.120777,-2.679855 -3.414788,-0.13615 2.203907,-2.611918 -3.408827,-0.243344 2.284862,-2.541403 -3.399502,-0.350297 2.363562,-2.46838 -3.386821,-0.456906 2.43993,-2.39292 -3.370798,-0.563063 2.513889,-2.315099 -3.351449,-0.668665 2.585368,-2.234994 -3.328792,-0.773606 2.654295,-2.152682 -3.30285,-0.877784 2.720603,-2.068247 -3.273648,-0.981096 2.784225,-1.981771 -3.241215,-1.083439 2.8451,-1.893338 -3.205585,-1.184714 2.903168,-1.803037 -3.16679,-1.28482 2.958369,-1.710956 -3.12487,-1.383657 3.010652,-1.617187 -3.079866,-1.481129 3.059964,-1.521822 -3.031824,-1.577139 3.106256,-1.424956 -2.980788,-1.671592 3.149481,-1.326683 -2.926811,-1.764396 3.1896,-1.227101 -2.869946,-1.855459 3.226569,-1.126307 -2.810248,-1.944691 3.260356,-1.024403 -2.747778,-2.032003 3.290925,-0.921487 -2.682595,-2.11731 3.318245,-0.817662 -2.614765,-2.200527 3.342291,-0.7130302 -2.544355,-2.2815736 3.363039,-0.6076941 -2.471433,-2.3603678 3.380467,-0.5017587 -2.396072,-2.4368327 3.39456,-0.39532804 -2.318348,-2.51089276 3.405303,-0.2885073 -2.238335,-2.5824748 3.412685,-0.1814018 -2.156113,-2.6515083 3.416699,-0.074117 -2.071763,-2.7179247 3.417341,0.03324 -1.985369,-2.78166 3.41461,0.140566 -1.897014,-2.842649 3.40851,0.247751 -1.806789,-2.900833 3.399046,0.354693 -1.71478,-2.956154 3.386228,0.461285 -1.621079,-3.008558 3.370068,0.567421 -1.525778,-3.057993 3.350581,0.672997 -1.428971,-3.104409 3.327789,0.777909 -1.330754,-3.147763 3.301712,0.882054 -1.231224,-3.188009 3.272377,0.985328 -1.130478,-3.22511 3.239812,1.08763 -1.028617,-3.259029 3.20405,1.188859 -0.925742,-3.28973 3.165127,1.288913 -0.821952,-3.317184 3.123079,1.387696 -0.717351,-3.341366 3.077949,1.48511 -0.612042,-3.36225 3.029782,1.581058 -0.506129,-3.379816 2.978625,1.675446 -0.399717,-3.394046 2.924528,1.76818 -0.29291,-3.404927 2.867545,1.859169 -0.185814,-3.412447 2.807732,1.948323 -0.07854,-3.416599 2.745148,2.035555 0.02882,-3.417381 2.679856,2.120778 0.13615,-3.414789 2.611918,2.203907 0.243344,-3.408827 2.541402,2.284862 0.350298,-3.399501 2.468379,2.363562 0.4569062,-3.386821 2.3929202,2.439929 0.563063,-3.370798 2.3150994,2.513889 0.6686644,-3.351448 2.2349939,2.585367 0.77360597,-3.328791 2.15268273,2.654294 0.8777841,-3.302849 2.0682471,2.720602 0.981096,-3.273647 1.9817703,2.784224 1.0834397,-3.241215 1.893338,2.8451 1.184714,-3.205584 1.803037,2.903167 1.284819,-3.16679 1.710957,2.95837 1.383656,-3.12487 1.617188,3.010652 1.481128,-3.079866 1.521823,3.059963 1.577138,-3.031823 1.424956,3.106255 1.671593,-2.980788 1.326683,3.149482 1.764396,-2.926811 1.227101,3.189599 1.855458,-2.869946 1.126308,3.22657 1.94469,-2.810249 1.024403,3.260356 2.032003,-2.747777 0.921487,3.290924 2.11731,-2.682595 0.817662,3.318245 2.200528,-2.614765 0.71303,3.342291 2.281573,-2.544354 0.607694,3.363039 2.360368,-2.471433 0.501759,3.380467 2.436833,-2.396073 0.395328,3.39456 2.510892,-2.318347 0.288508,3.405302 2.582475,-2.238334 0.181401,3.412684 2.651509,-2.156112 0.07412,3.416698 2.717925,-2.071763 -0.03324,3.417341 2.781659,-1.985368 -0.140565,3.41461 2.842649,-1.897015 -0.247752,3.40851 2.900833,-1.806789 -0.354693,3.399047 2.956155,-1.71478 -0.461285,3.386227 3.008558,-1.621078 -0.567421,3.370067 3.057993,-1.525778 -0.672998,3.350582 3.10441,-1.428971 -0.77791,3.327789 3.147763,-1.330754 -0.882054,3.301712 3.18801,-1.231224 -0.985328,3.272377 3.22511,-1.130479 -1.08763,3.239813 3.259028,-1.028618 -1.188858,3.20405 3.28973,-0.925741 -1.288914,3.165126 3.317185,-0.821951 -1.387696,3.123079 3.341366,-0.717351 -1.48511,3.077949 3.362251,-0.612042 -1.581059,3.029782 3.379819,-0.506129 -1.67545,2.978624 3.39405,-0.399716 -1.76818,2.924528 3.40492,-0.29291 -1.85917,2.867545 3.41245,-0.185815 -1.94832,2.807732 3.4166,-0.07854 -2.03556,2.7451489 3.41738,0.028822 -2.12077,2.6798556 3.41478,0.13615 -2.2039,2.6119179 3.40882,0.243344 -2.28486,2.54140271 3.3995,0.35029769 -2.36356,2.4683795 3.38682,0.4569057 -2.43993,2.3929203 3.3708,0.5630629 -2.51389,2.3150994 3.35145,0.6686644 -2.58537,2.2349943 3.32879,0.773606 -2.65429,2.152682 3.30285,0.877784 -2.7206,2.068248 3.27364,0.981096 -2.78422,1.98177 3.24122,1.08344 -2.8451,1.893337 3.20558,1.184714 -2.90317,1.803037 3.16679,1.28482 -2.95837,1.710956 3.12487,1.383657 -3.01065,1.617187 3.07987,1.481129 -3.05997,1.521822 3.03183,1.577139 -3.10626,1.424956 2.98079,1.671592 -3.14948,1.326683 2.92681,1.764396 -3.1896,1.227101 2.86995,1.855459 -3.22657,1.126307 2.81024,1.944691 -3.26035,1.024403 2.74778,2.032003 -3.29093,0.921487 2.6826,2.11731 -3.31825,0.817662 2.61477,2.200527 -3.34229,0.71303 2.54435,2.281574 -3.36304,0.607694 2.47143,2.360368 -3.38046,0.501758 2.39607,2.436833 -3.39456,0.395328 2.31835,2.510893 -3.40531,0.288507 2.23834,2.582475 -3.41269,0.181402 2.15612,2.651508 -3.4167,0.07412 2.07176,2.717926 -3.41734,-0.03324 1.98537,2.78166 -3.41461,-0.140566 1.89701,2.842649 -3.40851,-0.247751 1.80679,2.900833 -3.39904,-0.354693 1.71478,2.956154 -3.38623,-0.461285 1.62108,3.008558 -3.370071,-0.567421 1.525778,3.057993 -3.350581,-0.672997 1.428971,3.104409 -3.327789,-0.777909 1.330754,3.147763 -3.301712,-0.882054 1.231224,3.188011 -3.272377,-0.98533 1.130478,3.22511 -3.239812,-1.08763 z"
       transform="translate(81.069858,101.81759)" /><ellipse
       style="fill:url(#radialGradient48);stroke:url(#meshgradient30);stroke-width:0.543704;stroke-dasharray:none;stroke-opacity:1"
       id="path24"
       cx="101.81757"
       cy="135.05238"
       rx="90.535942"
       ry="89.95961" /><text
       xml:space="preserve"
       style="font-style:normal;font-variant:normal;font-weight:normal;font-stretch:normal;font-size:22.0283px;font-family:Limelight;-inkscape-font-specification:'Limelight, Normal';font-variant-ligatures:normal;font-variant-caps:normal;font-variant-numeric:normal;font-variant-east-asian:normal;text-align:start;writing-mode:lr-tb;direction:ltr;text-anchor:start;fill:#ff8bdc;fill-opacity:1;stroke:#000000;stroke-width:0.229823;stroke-dasharray:none;stroke-opacity:1"
       x="60.60527"
       y="160.12013"
       id="text49"
       transform="scale(0.81918064,1.220732)"><tspan
         sodipodi:role="line"
         id="tspan49"
         style="font-style:normal;font-variant:normal;font-weight:normal;font-stretch:normal;font-size:22.0283px;font-family:Limelight;-inkscape-font-specification:'Limelight, Normal';font-variant-ligatures:normal;font-variant-caps:normal;font-variant-numeric:normal;font-variant-east-asian:normal;fill:#ff8bdc;fill-opacity:1;stroke-width:0.229823"
         x="60.60527"
         y="160.12013">Legacy STL</tspan></text><use
       xlink:href="#sjjb-shopping.svg:symbol138"
       width="576.44501"
       height="577.45154"
       style="fill:url(#radialGradient86);stroke:url(#meshgradient78);fill-opacity:1;stroke-width:0.99861746;stroke-dasharray:none"
       id="use1"
       transform="matrix(0.18060067,0,0,0.16810508,48.611764,73.452732)" /></g><script
     id="mesh_polyfill"
     type="text/javascript">
!function(){const t=&quot;http://www.w3.org/2000/svg&quot;,e=&quot;http://www.w3.org/1999/xlink&quot;,s=&quot;http://www.w3.org/1999/xhtml&quot;,r=2;if(document.createElementNS(t,&quot;meshgradient&quot;).x)return;const n=(t,e,s,r)=&gt;{let n=new x(.5*(e.x+s.x),.5*(e.y+s.y)),o=new x(.5*(t.x+e.x),.5*(t.y+e.y)),i=new x(.5*(s.x+r.x),.5*(s.y+r.y)),a=new x(.5*(n.x+o.x),.5*(n.y+o.y)),h=new x(.5*(n.x+i.x),.5*(n.y+i.y)),l=new x(.5*(a.x+h.x),.5*(a.y+h.y));return[[t,o,a,l],[l,h,i,r]]},o=t=&gt;{let e=t[0].distSquared(t[1]),s=t[2].distSquared(t[3]),r=.25*t[0].distSquared(t[2]),n=.25*t[1].distSquared(t[3]),o=e&gt;s?e:s,i=r&gt;n?r:n;return 18*(o&gt;i?o:i)},i=(t,e)=&gt;Math.sqrt(t.distSquared(e)),a=(t,e)=&gt;t.scale(2/3).add(e.scale(1/3)),h=t=&gt;{let e,s,r,n,o,i,a,h=new g;return t.match(/(\w+\(\s*[^)]+\))+/g).forEach(t=&gt;{let l=t.match(/[\w.-]+/g),d=l.shift();switch(d){case&quot;translate&quot;:2===l.length?e=new g(1,0,0,1,l[0],l[1]):(console.error(&quot;mesh.js: translate does not have 2 arguments!&quot;),e=new g(1,0,0,1,0,0)),h=h.append(e);break;case&quot;scale&quot;:1===l.length?s=new g(l[0],0,0,l[0],0,0):2===l.length?s=new g(l[0],0,0,l[1],0,0):(console.error(&quot;mesh.js: scale does not have 1 or 2 arguments!&quot;),s=new g(1,0,0,1,0,0)),h=h.append(s);break;case&quot;rotate&quot;:if(3===l.length&amp;&amp;(e=new g(1,0,0,1,l[1],l[2]),h=h.append(e)),l[0]){r=l[0]*Math.PI/180;let t=Math.cos(r),e=Math.sin(r);Math.abs(t)&lt;1e-16&amp;&amp;(t=0),Math.abs(e)&lt;1e-16&amp;&amp;(e=0),a=new g(t,e,-e,t,0,0),h=h.append(a)}else console.error(&quot;math.js: No argument to rotate transform!&quot;);3===l.length&amp;&amp;(e=new g(1,0,0,1,-l[1],-l[2]),h=h.append(e));break;case&quot;skewX&quot;:l[0]?(r=l[0]*Math.PI/180,n=Math.tan(r),o=new g(1,0,n,1,0,0),h=h.append(o)):console.error(&quot;math.js: No argument to skewX transform!&quot;);break;case&quot;skewY&quot;:l[0]?(r=l[0]*Math.PI/180,n=Math.tan(r),i=new g(1,n,0,1,0,0),h=h.append(i)):console.error(&quot;math.js: No argument to skewY transform!&quot;);break;case&quot;matrix&quot;:6===l.length?h=h.append(new g(...l)):console.error(&quot;math.js: Incorrect number of arguments for matrix!&quot;);break;default:console.error(&quot;mesh.js: Unhandled transform type: &quot;+d)}}),h},l=t=&gt;{let e=[],s=t.split(/[ ,]+/);for(let t=0,r=s.length-1;t&lt;r;t+=2)e.push(new x(parseFloat(s[t]),parseFloat(s[t+1])));return e},d=(t,e)=&gt;{for(let s in e)t.setAttribute(s,e[s])},c=(t,e,s,r,n)=&gt;{let o,i,a=[0,0,0,0];for(let h=0;h&lt;3;++h)e[h]&lt;t[h]&amp;&amp;e[h]&lt;s[h]||t[h]&lt;e[h]&amp;&amp;s[h]&lt;e[h]?a[h]=0:(a[h]=.5*((e[h]-t[h])/r+(s[h]-e[h])/n),o=Math.abs(3*(e[h]-t[h])/r),i=Math.abs(3*(s[h]-e[h])/n),a[h]&gt;o?a[h]=o:a[h]&gt;i&amp;&amp;(a[h]=i));return a},u=[[1,0,0,0,0,0,0,0,0,0,0,0,0,0,0,0],[0,0,0,0,1,0,0,0,0,0,0,0,0,0,0,0],[-3,3,0,0,-2,-1,0,0,0,0,0,0,0,0,0,0],[2,-2,0,0,1,1,0,0,0,0,0,0,0,0,0,0],[0,0,0,0,0,0,0,0,1,0,0,0,0,0,0,0],[0,0,0,0,0,0,0,0,0,0,0,0,1,0,0,0],[0,0,0,0,0,0,0,0,-3,3,0,0,-2,-1,0,0],[0,0,0,0,0,0,0,0,2,-2,0,0,1,1,0,0],[-3,0,3,0,0,0,0,0,-2,0,-1,0,0,0,0,0],[0,0,0,0,-3,0,3,0,0,0,0,0,-2,0,-1,0],[9,-9,-9,9,6,3,-6,-3,6,-6,3,-3,4,2,2,1],[-6,6,6,-6,-3,-3,3,3,-4,4,-2,2,-2,-2,-1,-1],[2,0,-2,0,0,0,0,0,1,0,1,0,0,0,0,0],[0,0,0,0,2,0,-2,0,0,0,0,0,1,0,1,0],[-6,6,6,-6,-4,-2,4,2,-3,3,-3,3,-2,-1,-2,-1],[4,-4,-4,4,2,2,-2,-2,2,-2,2,-2,1,1,1,1]],f=t=&gt;{let e=[];for(let s=0;s&lt;16;++s){e[s]=0;for(let r=0;r&lt;16;++r)e[s]+=u[s][r]*t[r]}return e},p=(t,e,s)=&gt;{const r=e*e,n=s*s,o=e*e*e,i=s*s*s;return t[0]+t[1]*e+t[2]*r+t[3]*o+t[4]*s+t[5]*s*e+t[6]*s*r+t[7]*s*o+t[8]*n+t[9]*n*e+t[10]*n*r+t[11]*n*o+t[12]*i+t[13]*i*e+t[14]*i*r+t[15]*i*o},y=t=&gt;{let e=[],s=[],r=[];for(let s=0;s&lt;4;++s)e[s]=[],e[s][0]=n(t[0][s],t[1][s],t[2][s],t[3][s]),e[s][1]=[],e[s][1].push(...n(...e[s][0][0])),e[s][1].push(...n(...e[s][0][1])),e[s][2]=[],e[s][2].push(...n(...e[s][1][0])),e[s][2].push(...n(...e[s][1][1])),e[s][2].push(...n(...e[s][1][2])),e[s][2].push(...n(...e[s][1][3]));for(let t=0;t&lt;8;++t){s[t]=[];for(let r=0;r&lt;4;++r)s[t][r]=[],s[t][r][0]=n(e[0][2][t][r],e[1][2][t][r],e[2][2][t][r],e[3][2][t][r]),s[t][r][1]=[],s[t][r][1].push(...n(...s[t][r][0][0])),s[t][r][1].push(...n(...s[t][r][0][1])),s[t][r][2]=[],s[t][r][2].push(...n(...s[t][r][1][0])),s[t][r][2].push(...n(...s[t][r][1][1])),s[t][r][2].push(...n(...s[t][r][1][2])),s[t][r][2].push(...n(...s[t][r][1][3]))}for(let t=0;t&lt;8;++t){r[t]=[];for(let e=0;e&lt;8;++e)r[t][e]=[],r[t][e][0]=s[t][0][2][e],r[t][e][1]=s[t][1][2][e],r[t][e][2]=s[t][2][2][e],r[t][e][3]=s[t][3][2][e]}return r};class x{constructor(t,e){this.x=t||0,this.y=e||0}toString(){return`(x=${this.x}, y=${this.y})`}clone(){return new x(this.x,this.y)}add(t){return new x(this.x+t.x,this.y+t.y)}scale(t){return void 0===t.x?new x(this.x*t,this.y*t):new x(this.x*t.x,this.y*t.y)}distSquared(t){let e=this.x-t.x,s=this.y-t.y;return e*e+s*s}transform(t){let e=this.x*t.a+this.y*t.c+t.e,s=this.x*t.b+this.y*t.d+t.f;return new x(e,s)}}class g{constructor(t,e,s,r,n,o){void 0===t?(this.a=1,this.b=0,this.c=0,this.d=1,this.e=0,this.f=0):(this.a=t,this.b=e,this.c=s,this.d=r,this.e=n,this.f=o)}toString(){return`affine: ${this.a} ${this.c} ${this.e} \n       ${this.b} ${this.d} ${this.f}`}append(t){t instanceof g||console.error(&quot;mesh.js: argument to Affine.append is not affine!&quot;);let e=this.a*t.a+this.c*t.b,s=this.b*t.a+this.d*t.b,r=this.a*t.c+this.c*t.d,n=this.b*t.c+this.d*t.d,o=this.a*t.e+this.c*t.f+this.e,i=this.b*t.e+this.d*t.f+this.f;return new g(e,s,r,n,o,i)}}class w{constructor(t,e){this.nodes=t,this.colors=e}paintCurve(t,e){if(o(this.nodes)&gt;r){const s=n(...this.nodes);let r=[[],[]],o=[[],[]];for(let t=0;t&lt;4;++t)r[0][t]=this.colors[0][t],r[1][t]=(this.colors[0][t]+this.colors[1][t])/2,o[0][t]=r[1][t],o[1][t]=this.colors[1][t];let i=new w(s[0],r),a=new w(s[1],o);i.paintCurve(t,e),a.paintCurve(t,e)}else{let s=Math.round(this.nodes[0].x);if(s&gt;=0&amp;&amp;s&lt;e){let r=4*(~~this.nodes[0].y*e+s);t[r]=Math.round(this.colors[0][0]),t[r+1]=Math.round(this.colors[0][1]),t[r+2]=Math.round(this.colors[0][2]),t[r+3]=Math.round(this.colors[0][3])}}}}class m{constructor(t,e){this.nodes=t,this.colors=e}split(){let t=[[],[],[],[]],e=[[],[],[],[]],s=[[[],[]],[[],[]]],r=[[[],[]],[[],[]]];for(let s=0;s&lt;4;++s){const r=n(this.nodes[0][s],this.nodes[1][s],this.nodes[2][s],this.nodes[3][s]);t[0][s]=r[0][0],t[1][s]=r[0][1],t[2][s]=r[0][2],t[3][s]=r[0][3],e[0][s]=r[1][0],e[1][s]=r[1][1],e[2][s]=r[1][2],e[3][s]=r[1][3]}for(let t=0;t&lt;4;++t)s[0][0][t]=this.colors[0][0][t],s[0][1][t]=this.colors[0][1][t],s[1][0][t]=(this.colors[0][0][t]+this.colors[1][0][t])/2,s[1][1][t]=(this.colors[0][1][t]+this.colors[1][1][t])/2,r[0][0][t]=s[1][0][t],r[0][1][t]=s[1][1][t],r[1][0][t]=this.colors[1][0][t],r[1][1][t]=this.colors[1][1][t];return[new m(t,s),new m(e,r)]}paint(t,e){let s,n=!1;for(let t=0;t&lt;4;++t)if((s=o([this.nodes[0][t],this.nodes[1][t],this.nodes[2][t],this.nodes[3][t]]))&gt;r){n=!0;break}if(n){let s=this.split();s[0].paint(t,e),s[1].paint(t,e)}else{new w([...this.nodes[0]],[...this.colors[0]]).paintCurve(t,e)}}}class b{constructor(t){this.readMesh(t),this.type=t.getAttribute(&quot;type&quot;)||&quot;bilinear&quot;}readMesh(t){let e=[[]],s=[[]],r=Number(t.getAttribute(&quot;x&quot;)),n=Number(t.getAttribute(&quot;y&quot;));e[0][0]=new x(r,n);let o=t.children;for(let t=0,r=o.length;t&lt;r;++t){e[3*t+1]=[],e[3*t+2]=[],e[3*t+3]=[],s[t+1]=[];let r=o[t].children;for(let n=0,o=r.length;n&lt;o;++n){let o=r[n].children;for(let r=0,i=o.length;r&lt;i;++r){let i=r;0!==t&amp;&amp;++i;let h,d=o[r].getAttribute(&quot;path&quot;),c=&quot;l&quot;;null!=d&amp;&amp;(c=(h=d.match(/\s*([lLcC])\s*(.*)/))[1]);let u=l(h[2]);switch(c){case&quot;l&quot;:0===i?(e[3*t][3*n+3]=u[0].add(e[3*t][3*n]),e[3*t][3*n+1]=a(e[3*t][3*n],e[3*t][3*n+3]),e[3*t][3*n+2]=a(e[3*t][3*n+3],e[3*t][3*n])):1===i?(e[3*t+3][3*n+3]=u[0].add(e[3*t][3*n+3]),e[3*t+1][3*n+3]=a(e[3*t][3*n+3],e[3*t+3][3*n+3]),e[3*t+2][3*n+3]=a(e[3*t+3][3*n+3],e[3*t][3*n+3])):2===i?(0===n&amp;&amp;(e[3*t+3][3*n+0]=u[0].add(e[3*t+3][3*n+3])),e[3*t+3][3*n+1]=a(e[3*t+3][3*n],e[3*t+3][3*n+3]),e[3*t+3][3*n+2]=a(e[3*t+3][3*n+3],e[3*t+3][3*n])):(e[3*t+1][3*n]=a(e[3*t][3*n],e[3*t+3][3*n]),e[3*t+2][3*n]=a(e[3*t+3][3*n],e[3*t][3*n]));break;case&quot;L&quot;:0===i?(e[3*t][3*n+3]=u[0],e[3*t][3*n+1]=a(e[3*t][3*n],e[3*t][3*n+3]),e[3*t][3*n+2]=a(e[3*t][3*n+3],e[3*t][3*n])):1===i?(e[3*t+3][3*n+3]=u[0],e[3*t+1][3*n+3]=a(e[3*t][3*n+3],e[3*t+3][3*n+3]),e[3*t+2][3*n+3]=a(e[3*t+3][3*n+3],e[3*t][3*n+3])):2===i?(0===n&amp;&amp;(e[3*t+3][3*n+0]=u[0]),e[3*t+3][3*n+1]=a(e[3*t+3][3*n],e[3*t+3][3*n+3]),e[3*t+3][3*n+2]=a(e[3*t+3][3*n+3],e[3*t+3][3*n])):(e[3*t+1][3*n]=a(e[3*t][3*n],e[3*t+3][3*n]),e[3*t+2][3*n]=a(e[3*t+3][3*n],e[3*t][3*n]));break;case&quot;c&quot;:0===i?(e[3*t][3*n+1]=u[0].add(e[3*t][3*n]),e[3*t][3*n+2]=u[1].add(e[3*t][3*n]),e[3*t][3*n+3]=u[2].add(e[3*t][3*n])):1===i?(e[3*t+1][3*n+3]=u[0].add(e[3*t][3*n+3]),e[3*t+2][3*n+3]=u[1].add(e[3*t][3*n+3]),e[3*t+3][3*n+3]=u[2].add(e[3*t][3*n+3])):2===i?(e[3*t+3][3*n+2]=u[0].add(e[3*t+3][3*n+3]),e[3*t+3][3*n+1]=u[1].add(e[3*t+3][3*n+3]),0===n&amp;&amp;(e[3*t+3][3*n+0]=u[2].add(e[3*t+3][3*n+3]))):(e[3*t+2][3*n]=u[0].add(e[3*t+3][3*n]),e[3*t+1][3*n]=u[1].add(e[3*t+3][3*n]));break;case&quot;C&quot;:0===i?(e[3*t][3*n+1]=u[0],e[3*t][3*n+2]=u[1],e[3*t][3*n+3]=u[2]):1===i?(e[3*t+1][3*n+3]=u[0],e[3*t+2][3*n+3]=u[1],e[3*t+3][3*n+3]=u[2]):2===i?(e[3*t+3][3*n+2]=u[0],e[3*t+3][3*n+1]=u[1],0===n&amp;&amp;(e[3*t+3][3*n+0]=u[2])):(e[3*t+2][3*n]=u[0],e[3*t+1][3*n]=u[1]);break;default:console.error(&quot;mesh.js: &quot;+c+&quot; invalid path type.&quot;)}if(0===t&amp;&amp;0===n||r&gt;0){let e=window.getComputedStyle(o[r]).stopColor.match(/^rgb\s*\(\s*(\d+)\s*,\s*(\d+)\s*,\s*(\d+)\s*\)$/i),a=window.getComputedStyle(o[r]).stopOpacity,h=255;a&amp;&amp;(h=Math.floor(255*a)),e&amp;&amp;(0===i?(s[t][n]=[],s[t][n][0]=Math.floor(e[1]),s[t][n][1]=Math.floor(e[2]),s[t][n][2]=Math.floor(e[3]),s[t][n][3]=h):1===i?(s[t][n+1]=[],s[t][n+1][0]=Math.floor(e[1]),s[t][n+1][1]=Math.floor(e[2]),s[t][n+1][2]=Math.floor(e[3]),s[t][n+1][3]=h):2===i?(s[t+1][n+1]=[],s[t+1][n+1][0]=Math.floor(e[1]),s[t+1][n+1][1]=Math.floor(e[2]),s[t+1][n+1][2]=Math.floor(e[3]),s[t+1][n+1][3]=h):3===i&amp;&amp;(s[t+1][n]=[],s[t+1][n][0]=Math.floor(e[1]),s[t+1][n][1]=Math.floor(e[2]),s[t+1][n][2]=Math.floor(e[3]),s[t+1][n][3]=h))}}e[3*t+1][3*n+1]=new x,e[3*t+1][3*n+2]=new x,e[3*t+2][3*n+1]=new x,e[3*t+2][3*n+2]=new x,e[3*t+1][3*n+1].x=(-4*e[3*t][3*n].x+6*(e[3*t][3*n+1].x+e[3*t+1][3*n].x)+-2*(e[3*t][3*n+3].x+e[3*t+3][3*n].x)+3*(e[3*t+3][3*n+1].x+e[3*t+1][3*n+3].x)+-1*e[3*t+3][3*n+3].x)/9,e[3*t+1][3*n+2].x=(-4*e[3*t][3*n+3].x+6*(e[3*t][3*n+2].x+e[3*t+1][3*n+3].x)+-2*(e[3*t][3*n].x+e[3*t+3][3*n+3].x)+3*(e[3*t+3][3*n+2].x+e[3*t+1][3*n].x)+-1*e[3*t+3][3*n].x)/9,e[3*t+2][3*n+1].x=(-4*e[3*t+3][3*n].x+6*(e[3*t+3][3*n+1].x+e[3*t+2][3*n].x)+-2*(e[3*t+3][3*n+3].x+e[3*t][3*n].x)+3*(e[3*t][3*n+1].x+e[3*t+2][3*n+3].x)+-1*e[3*t][3*n+3].x)/9,e[3*t+2][3*n+2].x=(-4*e[3*t+3][3*n+3].x+6*(e[3*t+3][3*n+2].x+e[3*t+2][3*n+3].x)+-2*(e[3*t+3][3*n].x+e[3*t][3*n+3].x)+3*(e[3*t][3*n+2].x+e[3*t+2][3*n].x)+-1*e[3*t][3*n].x)/9,e[3*t+1][3*n+1].y=(-4*e[3*t][3*n].y+6*(e[3*t][3*n+1].y+e[3*t+1][3*n].y)+-2*(e[3*t][3*n+3].y+e[3*t+3][3*n].y)+3*(e[3*t+3][3*n+1].y+e[3*t+1][3*n+3].y)+-1*e[3*t+3][3*n+3].y)/9,e[3*t+1][3*n+2].y=(-4*e[3*t][3*n+3].y+6*(e[3*t][3*n+2].y+e[3*t+1][3*n+3].y)+-2*(e[3*t][3*n].y+e[3*t+3][3*n+3].y)+3*(e[3*t+3][3*n+2].y+e[3*t+1][3*n].y)+-1*e[3*t+3][3*n].y)/9,e[3*t+2][3*n+1].y=(-4*e[3*t+3][3*n].y+6*(e[3*t+3][3*n+1].y+e[3*t+2][3*n].y)+-2*(e[3*t+3][3*n+3].y+e[3*t][3*n].y)+3*(e[3*t][3*n+1].y+e[3*t+2][3*n+3].y)+-1*e[3*t][3*n+3].y)/9,e[3*t+2][3*n+2].y=(-4*e[3*t+3][3*n+3].y+6*(e[3*t+3][3*n+2].y+e[3*t+2][3*n+3].y)+-2*(e[3*t+3][3*n].y+e[3*t][3*n+3].y)+3*(e[3*t][3*n+2].y+e[3*t+2][3*n].y)+-1*e[3*t][3*n].y)/9}}this.nodes=e,this.colors=s}paintMesh(t,e){let s=(this.nodes.length-1)/3,r=(this.nodes[0].length-1)/3;if(&quot;bilinear&quot;===this.type||s&lt;2||r&lt;2){let n;for(let o=0;o&lt;s;++o)for(let s=0;s&lt;r;++s){let r=[];for(let t=3*o,e=3*o+4;t&lt;e;++t)r.push(this.nodes[t].slice(3*s,3*s+4));let i=[];i.push(this.colors[o].slice(s,s+2)),i.push(this.colors[o+1].slice(s,s+2)),(n=new m(r,i)).paint(t,e)}}else{let n,o,a,h,l,d,u;const x=s,g=r;s++,r++;let w=new Array(s);for(let t=0;t&lt;s;++t){w[t]=new Array(r);for(let e=0;e&lt;r;++e)w[t][e]=[],w[t][e][0]=this.nodes[3*t][3*e],w[t][e][1]=this.colors[t][e]}for(let t=0;t&lt;s;++t)for(let e=0;e&lt;r;++e)0!==t&amp;&amp;t!==x&amp;&amp;(n=i(w[t-1][e][0],w[t][e][0]),o=i(w[t+1][e][0],w[t][e][0]),w[t][e][2]=c(w[t-1][e][1],w[t][e][1],w[t+1][e][1],n,o)),0!==e&amp;&amp;e!==g&amp;&amp;(n=i(w[t][e-1][0],w[t][e][0]),o=i(w[t][e+1][0],w[t][e][0]),w[t][e][3]=c(w[t][e-1][1],w[t][e][1],w[t][e+1][1],n,o));for(let t=0;t&lt;r;++t){w[0][t][2]=[],w[x][t][2]=[];for(let e=0;e&lt;4;++e)n=i(w[1][t][0],w[0][t][0]),o=i(w[x][t][0],w[x-1][t][0]),w[0][t][2][e]=n&gt;0?2*(w[1][t][1][e]-w[0][t][1][e])/n-w[1][t][2][e]:0,w[x][t][2][e]=o&gt;0?2*(w[x][t][1][e]-w[x-1][t][1][e])/o-w[x-1][t][2][e]:0}for(let t=0;t&lt;s;++t){w[t][0][3]=[],w[t][g][3]=[];for(let e=0;e&lt;4;++e)n=i(w[t][1][0],w[t][0][0]),o=i(w[t][g][0],w[t][g-1][0]),w[t][0][3][e]=n&gt;0?2*(w[t][1][1][e]-w[t][0][1][e])/n-w[t][1][3][e]:0,w[t][g][3][e]=o&gt;0?2*(w[t][g][1][e]-w[t][g-1][1][e])/o-w[t][g-1][3][e]:0}for(let s=0;s&lt;x;++s)for(let r=0;r&lt;g;++r){let n=i(w[s][r][0],w[s+1][r][0]),o=i(w[s][r+1][0],w[s+1][r+1][0]),c=i(w[s][r][0],w[s][r+1][0]),x=i(w[s+1][r][0],w[s+1][r+1][0]),g=[[],[],[],[]];for(let t=0;t&lt;4;++t){(d=[])[0]=w[s][r][1][t],d[1]=w[s+1][r][1][t],d[2]=w[s][r+1][1][t],d[3]=w[s+1][r+1][1][t],d[4]=w[s][r][2][t]*n,d[5]=w[s+1][r][2][t]*n,d[6]=w[s][r+1][2][t]*o,d[7]=w[s+1][r+1][2][t]*o,d[8]=w[s][r][3][t]*c,d[9]=w[s+1][r][3][t]*x,d[10]=w[s][r+1][3][t]*c,d[11]=w[s+1][r+1][3][t]*x,d[12]=0,d[13]=0,d[14]=0,d[15]=0,u=f(d);for(let e=0;e&lt;9;++e){g[t][e]=[];for(let s=0;s&lt;9;++s)g[t][e][s]=p(u,e/8,s/8),g[t][e][s]&gt;255?g[t][e][s]=255:g[t][e][s]&lt;0&amp;&amp;(g[t][e][s]=0)}}h=[];for(let t=3*s,e=3*s+4;t&lt;e;++t)h.push(this.nodes[t].slice(3*r,3*r+4));l=y(h);for(let s=0;s&lt;8;++s)for(let r=0;r&lt;8;++r)(a=new m(l[s][r],[[[g[0][s][r],g[1][s][r],g[2][s][r],g[3][s][r]],[g[0][s][r+1],g[1][s][r+1],g[2][s][r+1],g[3][s][r+1]]],[[g[0][s+1][r],g[1][s+1][r],g[2][s+1][r],g[3][s+1][r]],[g[0][s+1][r+1],g[1][s+1][r+1],g[2][s+1][r+1],g[3][s+1][r+1]]]])).paint(t,e)}}}transform(t){if(t instanceof x)for(let e=0,s=this.nodes.length;e&lt;s;++e)for(let s=0,r=this.nodes[0].length;s&lt;r;++s)this.nodes[e][s]=this.nodes[e][s].add(t);else if(t instanceof g)for(let e=0,s=this.nodes.length;e&lt;s;++e)for(let s=0,r=this.nodes[0].length;s&lt;r;++s)this.nodes[e][s]=this.nodes[e][s].transform(t)}scale(t){for(let e=0,s=this.nodes.length;e&lt;s;++e)for(let s=0,r=this.nodes[0].length;s&lt;r;++s)this.nodes[e][s]=this.nodes[e][s].scale(t)}}document.querySelectorAll(&quot;rect,circle,ellipse,path,text&quot;).forEach((r,n)=&gt;{let o=r.getAttribute(&quot;id&quot;);o||(o=&quot;patchjs_shape&quot;+n,r.setAttribute(&quot;id&quot;,o));const i=r.style.fill.match(/^url\(\s*&quot;?\s*#([^\s&quot;]+)&quot;?\s*\)/),a=r.style.stroke.match(/^url\(\s*&quot;?\s*#([^\s&quot;]+)&quot;?\s*\)/);if(i&amp;&amp;i[1]){const a=document.getElementById(i[1]);if(a&amp;&amp;&quot;meshgradient&quot;===a.nodeName){const i=r.getBBox();let l=document.createElementNS(s,&quot;canvas&quot;);d(l,{width:i.width,height:i.height});const c=l.getContext(&quot;2d&quot;);let u=c.createImageData(i.width,i.height);const f=new b(a);&quot;objectBoundingBox&quot;===a.getAttribute(&quot;gradientUnits&quot;)&amp;&amp;f.scale(new x(i.width,i.height));const p=a.getAttribute(&quot;gradientTransform&quot;);null!=p&amp;&amp;f.transform(h(p)),&quot;userSpaceOnUse&quot;===a.getAttribute(&quot;gradientUnits&quot;)&amp;&amp;f.transform(new x(-i.x,-i.y)),f.paintMesh(u.data,l.width),c.putImageData(u,0,0);const y=document.createElementNS(t,&quot;image&quot;);d(y,{width:i.width,height:i.height,x:i.x,y:i.y});let g=l.toDataURL();y.setAttributeNS(e,&quot;xlink:href&quot;,g),r.parentNode.insertBefore(y,r),r.style.fill=&quot;none&quot;;const w=document.createElementNS(t,&quot;use&quot;);w.setAttributeNS(e,&quot;xlink:href&quot;,&quot;#&quot;+o);const m=&quot;patchjs_clip&quot;+n,M=document.createElementNS(t,&quot;clipPath&quot;);M.setAttribute(&quot;id&quot;,m),M.appendChild(w),r.parentElement.insertBefore(M,r),y.setAttribute(&quot;clip-path&quot;,&quot;url(#&quot;+m+&quot;)&quot;),u=null,l=null,g=null}}if(a&amp;&amp;a[1]){const o=document.getElementById(a[1]);if(o&amp;&amp;&quot;meshgradient&quot;===o.nodeName){const i=parseFloat(r.style.strokeWidth.slice(0,-2))*(parseFloat(r.style.strokeMiterlimit)||parseFloat(r.getAttribute(&quot;stroke-miterlimit&quot;))||1),a=r.getBBox(),l=Math.trunc(a.width+i),c=Math.trunc(a.height+i),u=Math.trunc(a.x-i/2),f=Math.trunc(a.y-i/2);let p=document.createElementNS(s,&quot;canvas&quot;);d(p,{width:l,height:c});const y=p.getContext(&quot;2d&quot;);let g=y.createImageData(l,c);const w=new b(o);&quot;objectBoundingBox&quot;===o.getAttribute(&quot;gradientUnits&quot;)&amp;&amp;w.scale(new x(l,c));const m=o.getAttribute(&quot;gradientTransform&quot;);null!=m&amp;&amp;w.transform(h(m)),&quot;userSpaceOnUse&quot;===o.getAttribute(&quot;gradientUnits&quot;)&amp;&amp;w.transform(new x(-u,-f)),w.paintMesh(g.data,p.width),y.putImageData(g,0,0);const M=document.createElementNS(t,&quot;image&quot;);d(M,{width:l,height:c,x:0,y:0});let S=p.toDataURL();M.setAttributeNS(e,&quot;xlink:href&quot;,S);const k=&quot;pattern_clip&quot;+n,A=document.createElementNS(t,&quot;pattern&quot;);d(A,{id:k,patternUnits:&quot;userSpaceOnUse&quot;,width:l,height:c,x:u,y:f}),A.appendChild(M),o.parentNode.appendChild(A),r.style.stroke=&quot;url(#&quot;+k+&quot;)&quot;,g=null,p=null,S=null}}})}();
</script></svg>
